<svg xmlns="http://www.w3.org/2000/svg" width="720" height="1024" viewBox="0 0 720 1024">
  <defs>
    <pattern id="tone" width="8" height="8" patternUnits="userSpaceOnUse">
      <circle cx="4" cy="4" r="1.1" fill="#1A1712" opacity=".55"/>
    </pattern>
    <pattern id="toneSparse" width="14" height="14" patternUnits="userSpaceOnUse">
      <circle cx="7" cy="7" r="1" fill="#1A1712" opacity=".3"/>
    </pattern>
  </defs>
  <rect width="720" height="1024" fill="#F4F1E8"/>
  <rect x="24" y="24" width="330" height="470" fill="#EFEAE0" stroke="#1A1712" stroke-width="3"/>
<circle cx="190" cy="240" r="62" fill="#1A1712"/>
<ellipse cx="190" cy="90" rx="86" ry="44" fill="#FBF9F3" stroke="#1A1712" stroke-width="2.5"/>
<rect x="378" y="24" width="318" height="470" fill="#E8E2D2" stroke="#1A1712" stroke-width="3"/>
<rect x="378" y="24" width="318" height="470" fill="url(#toneSparse)"/>
<ellipse cx="530" cy="110" rx="88" ry="52" fill="#FBF9F3" stroke="#1A1712" stroke-width="2.5"/>
<rect x="24" y="518" width="330" height="482" fill="#DDD5C2" stroke="#1A1712" stroke-width="3"/>
<circle cx="190" cy="740" r="58" fill="none" stroke="#1A1712" stroke-width="3"/>
<ellipse cx="190" cy="600" rx="90" ry="48" fill="#FBF9F3" stroke="#1A1712" stroke-width="2.5"/>
<rect x="378" y="518" width="318" height="482" fill="#EFEAE0" stroke="#1A1712" stroke-width="3"/>
<rect x="378" y="850" width="318" height="150" fill="url(#tone)" opacity=".25"/>
<ellipse cx="530" cy="640" rx="92" ry="52" fill="#FBF9F3" stroke="#1A1712" stroke-width="2.5"/>
</svg>
